<svg xmlns="http://www.w3.org/2000/svg" xmlns:xlink="http://www.w3.org/1999/xlink" width="2000" zoomAndPan="magnify" viewBox="0 0 1500 1499.999933" height="2000" preserveAspectRatio="xMidYMid meet" version="1.0"><defs><g/><clipPath id="cafb56dcd8"><rect x="0" width="1232" y="0" height="1445"/></clipPath></defs><g transform="matrix(1, 0, 0, 1, 136, 55)"><g clip-path="url(#cafb56dcd8)"><g fill="#ff0000" fill-opacity="1"><g transform="translate(1.546748, 1300.255001)"><g><path d="M 25.546875 -855.640625 C 25.546875 -916.085938 40.019531 -972.914062 68.96875 -1026.125 C 97.914062 -1079.34375 138.140625 -1126.171875 189.640625 -1166.609375 C 241.148438 -1207.046875 300.320312 -1238.757812 367.15625 -1261.75 C 434 -1284.738281 505.726562 -1296.234375 582.34375 -1296.234375 C 672.59375 -1296.234375 756.03125 -1280.691406 832.65625 -1249.609375 C 909.28125 -1218.535156 976.328125 -1174.90625 1033.796875 -1118.71875 C 1091.265625 -1062.53125 1135.960938 -996.332031 1167.890625 -920.125 C 1199.816406 -843.925781 1215.78125 -760.703125 1215.78125 -670.453125 C 1215.78125 -572.546875 1202.15625 -482.726562 1174.90625 -401 C 1147.664062 -319.269531 1108.503906 -248.394531 1057.421875 -188.375 C 1006.335938 -128.351562 945.675781 -81.953125 875.4375 -49.171875 C 805.195312 -16.390625 727.078125 0 641.078125 0 L 33.203125 0 C 55.335938 -33.207031 80.023438 -66.410156 107.265625 -99.609375 C 134.515625 -132.816406 160.269531 -166.445312 184.53125 -200.5 C 208.800781 -234.5625 228.597656 -268.40625 243.921875 -302.03125 C 259.242188 -335.664062 266.484375 -369.507812 265.640625 -403.5625 C 264.785156 -433.363281 256.269531 -459.113281 240.09375 -480.8125 C 223.914062 -502.519531 203.90625 -523.800781 180.0625 -544.65625 C 156.226562 -565.519531 132.390625 -589.148438 108.546875 -615.546875 C 84.710938 -641.941406 64.921875 -674.296875 49.171875 -712.609375 C 33.421875 -750.921875 25.546875 -798.597656 25.546875 -855.640625 Z M 471.25 -403.5625 C 442.300781 -383.976562 415.90625 -366.523438 392.0625 -351.203125 C 368.226562 -335.878906 345.03125 -320.976562 322.46875 -306.5 C 299.90625 -292.03125 274.578125 -275.003906 246.484375 -255.421875 C 274.578125 -269.890625 299.90625 -279.253906 322.46875 -283.515625 C 345.03125 -287.773438 363.972656 -289.90625 379.296875 -289.90625 C 410.796875 -289.90625 441.226562 -282.664062 470.59375 -268.1875 C 499.96875 -253.71875 528.914062 -235.625 557.4375 -213.90625 C 585.957031 -192.195312 615.113281 -170.488281 644.90625 -148.78125 C 674.707031 -127.070312 705.359375 -108.976562 736.859375 -94.5 C 768.367188 -80.03125 802 -72.796875 837.75 -72.796875 C 873.507812 -72.796875 902.671875 -83.863281 925.234375 -106 C 947.796875 -128.132812 965.25 -156.65625 977.59375 -191.5625 C 989.945312 -226.46875 998.460938 -264.351562 1003.140625 -305.21875 C 1007.828125 -346.09375 1010.171875 -384.832031 1010.171875 -421.4375 C 1010.171875 -481.039062 1000.164062 -541.0625 980.15625 -601.5 C 960.144531 -661.945312 931.617188 -719.414062 894.578125 -773.90625 C 857.546875 -828.394531 813.914062 -876.921875 763.6875 -919.484375 C 713.457031 -962.054688 657.691406 -995.265625 596.390625 -1019.109375 C 583.617188 -1010.585938 573.1875 -1000.582031 565.09375 -989.09375 C 557.007812 -977.601562 552.96875 -960.785156 552.96875 -938.640625 L 552.96875 -526.140625 C 552.96875 -495.503906 545.519531 -471.671875 530.625 -454.640625 C 515.726562 -437.617188 495.9375 -420.59375 471.25 -403.5625 Z M 399.734375 -1056.140625 C 337.578125 -1056.140625 283.296875 -1042.726562 236.890625 -1015.90625 C 190.492188 -989.09375 154.738281 -953.546875 129.625 -909.265625 C 104.507812 -864.992188 91.953125 -816.039062 91.953125 -762.40625 C 91.953125 -728.351562 97.695312 -699.191406 109.1875 -674.921875 C 120.6875 -650.660156 135.800781 -628.523438 154.53125 -608.515625 C 173.257812 -588.503906 193.050781 -567.644531 213.90625 -545.9375 C 234.769531 -524.226562 254.140625 -498.90625 272.015625 -469.96875 C 272.015625 -506.570312 271.585938 -545.09375 270.734375 -585.53125 C 269.890625 -625.96875 269.46875 -664.492188 269.46875 -701.109375 C 269.46875 -739.421875 273.9375 -770.492188 282.875 -794.328125 C 291.8125 -818.171875 311.179688 -842.4375 340.984375 -867.125 C 373.335938 -893.519531 401.21875 -914.59375 424.625 -930.34375 C 448.039062 -946.09375 471.023438 -961.203125 493.578125 -975.671875 C 516.140625 -990.148438 542.320312 -1007.609375 572.125 -1028.046875 C 544.875 -1037.410156 516.773438 -1044.429688 487.828125 -1049.109375 C 458.890625 -1053.796875 429.523438 -1056.140625 399.734375 -1056.140625 Z M 399.734375 -1056.140625 "/></g></g></g></g></g></svg>