<svg xmlns="http://www.w3.org/2000/svg" xmlns:xlink="http://www.w3.org/1999/xlink" width="2000" zoomAndPan="magnify" viewBox="0 0 1500 1499.999933" height="2000" preserveAspectRatio="xMidYMid meet" version="1.0"><defs><g/><clipPath id="1987b541e2"><path d="M 11.480469 11.480469 L 1488.519531 11.480469 L 1488.519531 1488.519531 L 11.480469 1488.519531 Z M 11.480469 11.480469 " clip-rule="nonzero"/></clipPath><clipPath id="d1921b1120"><path d="M 750 11.480469 C 342.128906 11.480469 11.480469 342.128906 11.480469 750 C 11.480469 1157.871094 342.128906 1488.519531 750 1488.519531 C 1157.871094 1488.519531 1488.519531 1157.871094 1488.519531 750 C 1488.519531 342.128906 1157.871094 11.480469 750 11.480469 Z M 750 11.480469 " clip-rule="nonzero"/></clipPath><clipPath id="9631d7014b"><path d="M 0.480469 0.480469 L 1477.519531 0.480469 L 1477.519531 1477.519531 L 0.480469 1477.519531 Z M 0.480469 0.480469 " clip-rule="nonzero"/></clipPath><clipPath id="9cab91d67b"><path d="M 739 0.480469 C 331.128906 0.480469 0.480469 331.128906 0.480469 739 C 0.480469 1146.871094 331.128906 1477.519531 739 1477.519531 C 1146.871094 1477.519531 1477.519531 1146.871094 1477.519531 739 C 1477.519531 331.128906 1146.871094 0.480469 739 0.480469 Z M 739 0.480469 " clip-rule="nonzero"/></clipPath><clipPath id="c063fdaa9e"><rect x="0" width="1478" y="0" height="1478"/></clipPath><clipPath id="cea7424599"><rect x="0" width="910" y="0" height="1291"/></clipPath></defs><rect x="-150" width="1800" fill="#ffffff" y="-149.999993" height="1799.99992" fill-opacity="1"/><rect x="-150" width="1800" fill="#f6f4f0" y="-149.999993" height="1799.99992" fill-opacity="1"/><g clip-path="url(#1987b541e2)"><g clip-path="url(#d1921b1120)"><g transform="matrix(1, 0, 0, 1, 11, 11)"><g clip-path="url(#c063fdaa9e)"><g clip-path="url(#9631d7014b)"><g clip-path="url(#9cab91d67b)"><path fill="#ffffff" d="M 0.480469 0.480469 L 1477.519531 0.480469 L 1477.519531 1477.519531 L 0.480469 1477.519531 Z M 0.480469 0.480469 " fill-opacity="1" fill-rule="nonzero"/></g></g></g></g></g></g><g transform="matrix(1, 0, 0, 1, 319, 209)"><g clip-path="url(#cea7424599)"><g fill="#ff0000" fill-opacity="1"><g transform="translate(1.452894, 960.092985)"><g><path d="M 18.875 -632.078125 C 18.875 -676.734375 29.5625 -718.710938 50.9375 -758.015625 C 72.320312 -797.328125 102.039062 -831.921875 140.09375 -861.796875 C 178.144531 -891.671875 221.851562 -915.097656 271.21875 -932.078125 C 320.59375 -949.066406 373.582031 -957.5625 430.1875 -957.5625 C 496.851562 -957.5625 558.488281 -946.082031 615.09375 -923.125 C 671.695312 -900.164062 721.226562 -867.929688 763.6875 -826.421875 C 806.144531 -784.910156 839.164062 -736.007812 862.75 -679.71875 C 886.332031 -623.4375 898.125 -561.957031 898.125 -495.28125 C 898.125 -422.957031 888.0625 -356.601562 867.9375 -296.21875 C 847.8125 -235.84375 818.878906 -183.484375 781.140625 -139.140625 C 743.398438 -94.804688 698.585938 -60.53125 646.703125 -36.3125 C 594.816406 -12.101562 537.113281 0 473.59375 0 L 24.53125 0 C 40.882812 -24.53125 59.125 -49.054688 79.25 -73.578125 C 99.375 -98.109375 118.394531 -122.953125 136.3125 -148.109375 C 154.238281 -173.265625 168.863281 -198.265625 180.1875 -223.109375 C 191.507812 -247.953125 196.859375 -272.953125 196.234375 -298.109375 C 195.597656 -320.128906 189.304688 -339.15625 177.359375 -355.1875 C 165.410156 -371.226562 150.628906 -386.953125 133.015625 -402.359375 C 115.410156 -417.765625 97.800781 -435.21875 80.1875 -454.71875 C 62.582031 -474.21875 47.960938 -498.117188 36.328125 -526.421875 C 24.691406 -554.722656 18.875 -589.941406 18.875 -632.078125 Z M 348.109375 -298.109375 C 326.734375 -283.648438 307.238281 -270.757812 289.625 -259.4375 C 272.007812 -248.113281 254.867188 -237.101562 238.203125 -226.40625 C 221.535156 -215.71875 202.828125 -203.144531 182.078125 -188.6875 C 202.828125 -199.375 221.535156 -206.289062 238.203125 -209.4375 C 254.867188 -212.582031 268.863281 -214.15625 280.1875 -214.15625 C 303.457031 -214.15625 325.941406 -208.804688 347.640625 -198.109375 C 369.335938 -187.421875 390.722656 -174.054688 411.796875 -158.015625 C 432.867188 -141.984375 454.410156 -125.945312 476.421875 -109.90625 C 498.429688 -93.863281 521.070312 -80.5 544.34375 -69.8125 C 567.613281 -59.125 592.457031 -53.78125 618.875 -53.78125 C 645.289062 -53.78125 666.832031 -61.953125 683.5 -78.296875 C 700.164062 -94.648438 713.054688 -115.71875 722.171875 -141.5 C 731.296875 -167.289062 737.585938 -195.28125 741.046875 -225.46875 C 744.503906 -255.65625 746.234375 -284.273438 746.234375 -311.328125 C 746.234375 -355.347656 738.84375 -399.6875 724.0625 -444.34375 C 709.28125 -489 688.207031 -531.453125 660.84375 -571.703125 C 633.488281 -611.953125 601.257812 -647.800781 564.15625 -679.25 C 527.050781 -710.695312 485.859375 -735.226562 440.578125 -752.84375 C 431.140625 -746.550781 423.429688 -739.160156 417.453125 -730.671875 C 411.484375 -722.179688 408.5 -709.757812 408.5 -693.40625 L 408.5 -388.6875 C 408.5 -366.039062 402.992188 -348.425781 391.984375 -335.84375 C 380.972656 -323.269531 366.347656 -310.691406 348.109375 -298.109375 Z M 295.28125 -780.203125 C 249.375 -780.203125 209.28125 -770.296875 175 -750.484375 C 140.726562 -730.671875 114.3125 -704.410156 95.75 -671.703125 C 77.195312 -638.992188 67.921875 -602.832031 67.921875 -563.21875 C 67.921875 -538.0625 72.164062 -516.519531 80.65625 -498.59375 C 89.144531 -480.664062 100.304688 -464.3125 114.140625 -449.53125 C 127.984375 -434.75 142.609375 -419.335938 158.015625 -403.296875 C 173.429688 -387.265625 187.742188 -368.554688 200.953125 -347.171875 C 200.953125 -374.210938 200.632812 -402.671875 200 -432.546875 C 199.375 -462.421875 199.0625 -490.882812 199.0625 -517.9375 C 199.0625 -546.238281 202.363281 -569.191406 208.96875 -586.796875 C 215.570312 -604.410156 229.878906 -622.335938 251.890625 -640.578125 C 275.785156 -660.066406 296.378906 -675.628906 313.671875 -687.265625 C 330.972656 -698.898438 347.957031 -710.0625 364.625 -720.75 C 381.289062 -731.445312 400.628906 -744.34375 422.640625 -759.4375 C 402.515625 -766.351562 381.757812 -771.539062 360.375 -775 C 339 -778.46875 317.300781 -780.203125 295.28125 -780.203125 Z M 295.28125 -780.203125 "/></g></g></g></g></g></svg>